<?xml version="1.0" encoding="UTF-8" standalone="no"?>
<svg width="80px" height="80px" viewBox="0 0 80 80" version="1.1" xmlns="http://www.w3.org/2000/svg" xmlns:xlink="http://www.w3.org/1999/xlink">
    <!-- Generator: Sketch 39.1 (31720) - http://www.bohemiancoding.com/sketch -->
    <title>button_carousel</title>
    <desc>Created with Sketch.</desc>
    <defs></defs>
    <g id="Page-1" stroke="none" stroke-width="1" fill="none" fill-rule="evenodd">
        <g id="button_carousel">
            <g id="Page-1" transform="translate(1.000000, 1.000000)">
                <path d="M80,40 C80,62.0913333 62.0913333,80 40,80 C17.908,80 0,62.0913333 0,40 C0,17.9073333 17.908,0 40,0 C62.0913333,0 80,17.9073333 80,40" id="Fill-1" fill="#FFFFFF" opacity="0.705865205"></path>
                <path d="M44.9908667,58.3346667 C44.7315333,58.594 44.3075333,58.594 44.0482,58.3346667 L26.1835333,40.4713333 C25.9242,40.212 25.9242,39.788 26.1835333,39.5286667 L44.0482,21.6653333 C44.3075333,21.406 44.7315333,21.406 44.9908667,21.6653333 L47.8188667,24.494 C48.0782,24.7533333 48.0782,25.178 47.8188667,25.4366667 L33.7268667,39.5286667 C33.4675333,39.788 33.4675333,40.212 33.7268667,40.4713333 L47.8188667,54.5633333 C48.0782,54.822 48.0782,55.2466667 47.8188667,55.506 L44.9908667,58.3346667 Z" id="Fill-3" fill="#5D39E4"></path>
            </g>
        </g>
    </g>
</svg>