<?xml version="1.0" encoding="UTF-8" standalone="no"?>
<svg width="223px" height="80px" viewBox="0 0 223 80" version="1.1" xmlns="http://www.w3.org/2000/svg" xmlns:xlink="http://www.w3.org/1999/xlink">
    <!-- Generator: Sketch 39.1 (31720) - http://www.bohemiancoding.com/sketch -->
    <title>logo_black</title>
    <desc>Created with Sketch.</desc>
    <defs></defs>
    <g id="Page-1" stroke="none" stroke-width="1" fill="none" fill-rule="evenodd">
        <g id="logo_black" fill="#000000">
            <g id="Page-1">
                <path d="M128.190748,70.1538889 L134.676008,70.1538889 L134.676008,78.3722222 C132.297157,79.4088889 129.93712,79.9272222 127.595897,79.9272222 C124.396981,79.9272222 121.841058,78.99 119.928127,77.1161111 C118.01575,75.2416667 117.059562,72.93 117.059562,70.1816667 C117.059562,67.285 118.050058,64.8738889 120.03271,62.9488889 C122.014256,61.0238889 124.498797,60.0611111 127.48578,60.0611111 C128.572559,60.0611111 129.605663,60.1788889 130.582879,60.415 C131.560095,60.6511111 132.795725,61.0838889 134.288663,61.7133333 L134.288663,64.5455556 C131.983961,63.2033333 129.698073,62.5322222 127.429892,62.5322222 C125.319415,62.5322222 123.540395,63.2544444 122.092832,64.6983333 C120.645822,66.1416667 119.921487,67.9144444 119.921487,70.015 C119.921487,72.2177778 120.645822,74.0177778 122.092832,75.4155556 C123.540395,76.8133333 125.401864,77.5116667 127.679452,77.5116667 C128.785599,77.5116667 130.108105,77.2572222 131.647524,76.7483333 L131.910366,76.665 L131.910366,72.625 L128.190748,72.625 L128.190748,70.1538889 Z" id="Fill-1"></path>
                <polygon id="Fill-3" points="145.509935 60.3107778 148.276131 60.3107778 148.276131 77.1785556 156.973684 77.1785556 156.973684 79.7052222 145.509935 79.7052222"></polygon>
                <path d="M176.42028,71.4867222 L173.304367,64.4617222 L170.414221,71.4867222 L176.42028,71.4867222 Z M172.357032,60.2000556 L174.30095,60.2000556 L182.962536,79.7050556 L180.132151,79.7050556 L177.557967,73.9578333 L169.315821,73.9578333 L166.902109,79.7050556 L164.060104,79.7050556 L172.357032,60.2000556 Z" id="Fill-5"></path>
                <path d="M196.659163,71.5792222 L194.55754,70.297 C193.238907,69.4892222 192.301532,68.6942222 191.743756,67.9114444 C191.185426,67.1297778 190.906537,66.2297778 190.906537,65.2114444 C190.906537,63.6842222 191.434433,62.4442222 192.490225,61.4908889 C193.546016,60.5375556 194.917217,60.0608889 196.603828,60.0608889 C198.216842,60.0608889 199.6965,60.5158889 201.0428,61.4247778 L201.0428,64.5764444 C199.650572,63.232 198.152654,62.5597778 196.548493,62.5597778 C195.645426,62.5597778 194.903383,62.7697778 194.322366,63.1892222 C193.741349,63.6086667 193.451393,64.1458889 193.451393,64.8003333 C193.451393,65.3814444 193.664986,65.9247778 194.092726,66.432 C194.520465,66.9392222 195.208833,67.4714444 196.156721,68.0292222 L198.268857,69.2836667 C200.624468,70.697 201.803103,72.4953333 201.803103,74.6797778 C201.803103,76.2342222 201.285167,77.4975556 200.247083,78.4697778 C199.210659,79.4414444 197.862699,79.927 196.202649,79.927 C194.295252,79.927 192.556627,79.3386667 190.990093,78.1608889 L190.990093,74.6342222 C192.483584,76.5342222 194.211696,77.4836667 196.174981,77.4836667 C197.041527,77.4836667 197.763649,77.242 198.339686,76.7575556 C198.915723,76.2736667 199.203465,75.667 199.203465,74.9386667 C199.203465,73.7581111 198.35518,72.6386667 196.659163,71.5792222" id="Fill-7"></path>
                <path d="M216.426259,71.5792222 L214.324083,70.297 C213.00545,69.4892222 212.067522,68.6942222 211.510299,67.9114444 C210.952522,67.1297778 210.673633,66.2297778 210.673633,65.2114444 C210.673633,63.6842222 211.201529,62.4442222 212.257321,61.4908889 C213.312559,60.5375556 214.684313,60.0608889 216.370924,60.0608889 C217.983385,60.0608889 219.463596,60.5158889 220.809343,61.4247778 L220.809343,64.5764444 C219.417668,63.232 217.91975,62.5597778 216.315589,62.5597778 C215.411968,62.5597778 214.669926,62.7697778 214.089462,63.1892222 C213.508445,63.6086667 213.217936,64.1458889 213.217936,64.8003333 C213.217936,65.3814444 213.432083,65.9247778 213.859822,66.432 C214.287562,66.9392222 214.975375,67.4714444 215.923817,68.0292222 L218.0354,69.2836667 C220.391564,70.697 221.570199,72.4953333 221.570199,74.6797778 C221.570199,76.2342222 221.05171,77.4975556 220.014179,78.4697778 C218.977202,79.4414444 217.628688,79.927 215.969745,79.927 C214.061241,79.927 212.323723,79.3386667 210.756636,78.1608889 L210.756636,74.6342222 C212.250681,76.5342222 213.978792,77.4836667 215.942631,77.4836667 C216.808624,77.4836667 217.529638,77.242 218.106229,76.7575556 C218.682266,76.2736667 218.970562,75.667 218.970562,74.9386667 C218.970562,73.7581111 218.122276,72.6386667 216.426259,71.5792222" id="Fill-9"></path>
                <path d="M25.0755476,6.32722222 C19.768369,6.32722222 15.4063119,7.99222222 11.9899298,11.3227778 C8.57410099,14.6527778 6.86590993,18.9044444 6.86590993,24.0772222 C6.86590993,29.0944444 8.57852779,33.2683333 12.0065303,36.5983333 C15.4345328,39.9283333 19.724101,41.5933333 24.876895,41.5933333 C30.0507164,41.5933333 34.3679521,39.895 37.8286022,36.4983333 C41.2898057,33.1016667 43.0201308,28.8722222 43.0201308,23.8105556 C43.0201308,18.8822222 41.2898057,14.7361111 37.8286022,11.3722222 C34.3679521,8.00888889 30.1171184,6.32722222 25.0755476,6.32722222 M24.8104931,0 C31.9747139,0 37.9392722,2.27611111 42.7047213,6.82666667 C47.4696171,11.3783333 49.8523417,17.0838889 49.8523417,23.9438889 C49.8523417,30.8038889 47.4485898,36.4816667 42.6388727,40.9772222 C37.8286022,45.4727778 31.7644409,47.7205556 24.4447288,47.7205556 C17.4575799,47.7205556 11.6357859,45.4727778 6.98156005,40.9772222 C2.32622754,36.4816667 -5.53349876e-05,30.8483333 -5.53349876e-05,24.0772222 C-5.53349876e-05,17.1283333 2.34338139,11.3783333 7.03136154,6.82666667 C11.7193417,2.27611111 17.6457189,0 24.8104931,0" id="Fill-11"></path>
                <polygon id="Fill-14" points="62.183799 0.599277778 100.892836 0.599277778 100.892836 6.52705556 84.7388933 6.52705556 84.7388933 47.1881667 78.072134 47.1881667 78.072134 6.52705556 62.183799 6.52705556"></polygon>
                <path d="M138.332876,6.32722222 C133.025698,6.32722222 128.66364,7.99222222 125.247258,11.3227778 C121.830876,14.6527778 120.122132,18.9044444 120.122132,24.0772222 C120.122132,29.0944444 121.835856,33.2683333 125.263859,36.5983333 C128.691308,39.9283333 132.980323,41.5933333 138.133117,41.5933333 C143.308045,41.5933333 147.624727,39.895 151.085931,36.4983333 C154.546581,33.1016667 156.277459,28.8722222 156.277459,23.8105556 C156.277459,18.8822222 154.546581,14.7361111 151.085931,11.3722222 C147.624727,8.00888889 143.374447,6.32722222 138.332876,6.32722222 M138.066715,0 C145.232042,0 151.197154,2.27611111 155.96205,6.82666667 C160.726946,11.3783333 163.10967,17.0838889 163.10967,23.9438889 C163.10967,30.8038889 160.704812,36.4816667 155.896201,40.9772222 C151.085931,45.4727778 145.020663,47.7205556 137.702057,47.7205556 C130.713802,47.7205556 124.893114,45.4727778 120.238889,40.9772222 C115.583556,36.4816667 113.25672,30.8483333 113.25672,24.0772222 C113.25672,17.1283333 115.600157,11.3783333 120.288137,6.82666667 C124.97667,2.27611111 130.902494,0 138.066715,0" id="Fill-16"></path>
                <polygon id="Fill-18" points="216.206081 0.666166667 222.507629 0.666166667 222.507629 47.1878333 216.802592 47.1878333 185.822746 11.3589444 185.822746 47.1878333 179.586493 47.1878333 179.586493 0.666166667 184.960627 0.666166667 216.206081 36.7995"></polygon>
            </g>
        </g>
    </g>
</svg>